<?xml version="1.0" encoding="utf-8"?>
<!-- Generator: Adobe Illustrator 21.0.0, SVG Export Plug-In . SVG Version: 6.00 Build 0)  -->
<svg version="1.1" id="图层_1" xmlns="http://www.w3.org/2000/svg" xmlns:xlink="http://www.w3.org/1999/xlink" x="0px" y="0px"
	 viewBox="0 0 20 20" style="enable-background:new 0 0 20 20;" xml:space="preserve">
<path d="M19.5,9.9c-0.3-0.3-5.4-6.3-9.5-6.3s-9.2,6-9.5,6.3L0,10.4l0.5,0.5c0.3,0.3,5.4,6.3,9.5,6.3s9.2-6,9.5-6.3l0.5-0.5L19.5,9.9
	z M10,15.7c-2.6,0-5.8-3.5-7.9-5.3c2-1.9,5.2-5.3,7.9-5.3s5.8,3.5,7.9,5.3C15.8,12.3,12.6,15.7,10,15.7z"/>
<path d="M10,7.7c1.5,0,2.7,1.2,2.7,2.7s-1.2,2.7-2.7,2.7s-2.7-1.2-2.7-2.7S8.5,7.7,10,7.7z"/>
</svg>
